<svg width="1165" height="1024" viewBox="0 0 1165 1024" fill="none" xmlns="http://www.w3.org/2000/svg">
<path d="M196.833 489.035C196.833 514.904 196.833 539.281 196.833 564.288C187.024 564.288 168 564.324 168 564.324C168 564.324 168 475.22 168.054 433.884C168.108 392.888 199.779 360.66 240.181 359.133C280.188 357.624 313.962 387.769 317.842 428.458C321.489 466.579 292.476 502.849 253.314 508.49C234.02 511.275 216.432 506.891 201.755 493.31C200.534 492.178 199.258 491.136 196.833 489.035ZM243.217 386.834C216.576 386.709 196.33 407.009 196.258 433.901C196.186 460.722 216.522 481.489 242.876 481.507C268.835 481.525 289.117 461.136 289.44 434.71C289.746 407.871 269.571 386.96 243.217 386.834Z" fill="#00B8FF"/>
<path d="M691.47 489.035C691.47 514.904 691.47 539.281 691.47 564.288C681.661 564.288 662.637 564.324 662.637 564.324C662.637 564.324 662.637 475.22 662.691 433.884C662.745 392.888 694.416 360.66 734.819 359.133C774.826 357.624 808.599 387.769 812.479 428.458C816.126 466.579 787.113 502.849 747.951 508.49C728.657 511.275 711.069 506.891 696.392 493.31C695.189 492.178 693.895 491.136 691.47 489.035ZM737.855 386.834C711.213 386.709 690.967 407.009 690.895 433.901C690.823 460.722 711.159 481.489 737.513 481.507C763.472 481.525 783.754 461.136 784.077 434.71C784.383 407.871 764.209 386.96 737.855 386.834Z" fill="#00B8FF"/>
<path d="M571.678 509.083C529.731 509.155 496.173 475.741 496.281 433.974C496.371 392.565 529.677 359.241 571.121 359.079C612.853 358.918 646.716 392.673 646.59 434.297C646.482 475.633 613.05 509.011 571.678 509.083ZM571.552 386.835C544.893 386.889 524.88 407.224 524.916 434.225C524.952 460.866 545.611 481.669 571.875 481.526C597.816 481.382 617.865 460.866 617.972 434.351C618.08 407.135 598.193 386.799 571.552 386.835Z" fill="#00B8FF"/>
<path d="M1160.14 402.265C1151.02 402.265 1142.7 402.265 1134.37 402.265C1126.21 385.81 1108.68 379.415 1092.54 387.067C1086.15 390.103 1081.69 394.774 1081.75 402.211C1081.8 409.667 1086.89 413.511 1093.28 415.379C1107.33 419.493 1121.63 422.781 1135.6 427.164C1158.42 434.314 1168.07 450.59 1164.15 474.088C1162.48 484.04 1157.36 491.837 1149.22 497.711C1128.11 512.981 1089.49 512.873 1068.54 497.495C1056.74 488.818 1050.69 476.818 1051.73 463.111C1059.08 463.111 1078.03 463.129 1078.03 463.129C1078.03 463.129 1078.21 465.554 1078.44 466.327C1081.89 478.094 1091.25 481.92 1101.76 482.675C1109.3 483.214 1117.26 482.279 1124.61 480.357C1132.14 478.381 1136.4 472.273 1136.47 464.189C1136.54 456.213 1131.9 451.255 1124.68 449.117C1110.36 444.859 1095.83 441.374 1081.57 436.991C1066.12 432.248 1055.5 422.799 1053.51 405.679C1051.78 390.894 1057.17 379.361 1068.83 370.522C1088.47 355.629 1123.3 355.055 1143.38 369.247C1154.38 376.989 1160.04 387.57 1160.14 402.265Z" fill="#00B8FF"/>
<path d="M428.811 362.385C389.217 350.295 348.276 372.032 336.06 411.41C323.575 451.669 345.384 493.652 385.122 505.85C420.476 516.718 464.453 497.855 474.01 467.082C464.237 467.082 440.614 467.118 440.614 467.118C440.614 467.118 439.303 469.31 438.135 470.316C425.757 480.825 411.44 483.232 396.026 480.43C380.451 477.609 367.786 465.304 364.983 451.417H364.929C364.929 451.417 363.402 445.219 363.349 433.129C363.331 427.83 363.798 423.985 364.355 421.326C364.337 421.326 364.319 421.326 364.301 421.326C364.355 421.147 364.426 420.967 364.48 420.788C365.145 417.77 365.882 416.458 365.882 416.458H365.917C373.229 396.733 388.679 387.122 409.805 386.889C428.739 386.673 446.255 402.572 450.135 421.273C448.141 421.273 413.667 421.291 385.373 421.326V444.465C416.883 444.465 448.375 444.465 479.759 444.465C485.094 419.35 473.615 376.056 428.811 362.385Z" fill="#00B8FF"/>
<path d="M984.776 362.854C945.182 350.763 904.241 372.501 892.025 411.879C879.539 452.137 901.348 494.12 941.086 506.318C976.44 517.187 1020.42 498.324 1029.97 467.551C1020.2 467.551 996.578 467.587 996.578 467.587C996.578 467.587 995.267 469.778 994.099 470.784C981.722 481.294 967.404 483.701 951.99 480.898C936.415 478.078 923.75 465.772 920.948 451.886H920.894C920.894 451.886 919.367 445.688 919.313 433.598C919.295 428.298 919.762 424.454 920.319 421.795C920.301 421.795 920.283 421.795 920.265 421.795C920.319 421.616 920.391 421.436 920.445 421.256C921.109 418.238 921.846 416.927 921.846 416.927H921.882C929.193 397.202 944.643 387.591 965.769 387.357C984.704 387.142 1002.22 403.04 1006.1 421.741C1004.11 421.741 969.632 421.759 941.337 421.795V444.934C972.847 444.934 1004.34 444.934 1035.72 444.934C1041.08 419.837 1029.58 376.525 984.776 362.854Z" fill="#00B8FF"/>
<path d="M829.185 304C838.419 304 856.653 304 856.653 304C856.653 304 856.401 410.637 856.653 460.92C856.635 489.717 872.084 486.951 872.084 486.951C872.084 486.951 872.138 503.352 872.084 509.55C849.593 509.64 829.185 509.568 829.221 464.89C829.257 422.314 829.185 306.03 829.185 304Z" fill="#00B8FF"/>
<mask id="mask0" mask-type="alpha" maskUnits="userSpaceOnUse" x="0" y="0" width="682" height="1024">
<rect width="682" height="1024" fill="url(#paint0_linear)"/>
</mask>
<g mask="url(#mask0)">
<path fill-rule="evenodd" clip-rule="evenodd" d="M-1 1039C306.07 1039 555 790.07 555 483C555 175.93 306.07 -73 -1 -73C-308.07 -73 -557 175.93 -557 483C-557 790.07 -308.07 1039 -1 1039ZM-1.00037 863C208.868 863 379 692.868 379 483C379 273.132 208.868 103 -1.00037 103C-210.869 103 -381 273.132 -381 483C-381 692.868 -210.869 863 -1.00037 863Z" fill="#B0E5FA" fill-opacity="0.14"/>
</g>
<mask id="mask1" mask-type="alpha" maskUnits="userSpaceOnUse" x="168" y="304" width="997" height="261">
<path d="M196.833 489.035C196.833 514.904 196.833 539.281 196.833 564.288C187.024 564.288 168 564.324 168 564.324C168 564.324 168 475.22 168.054 433.884C168.108 392.888 199.779 360.66 240.181 359.133C280.188 357.624 313.962 387.769 317.842 428.458C321.489 466.579 292.476 502.849 253.314 508.49C234.02 511.275 216.432 506.891 201.755 493.31C200.534 492.178 199.258 491.136 196.833 489.035ZM243.217 386.834C216.576 386.709 196.33 407.009 196.258 433.901C196.186 460.722 216.522 481.489 242.876 481.507C268.835 481.525 289.117 461.136 289.44 434.71C289.746 407.871 269.571 386.96 243.217 386.834Z" fill="#00B8FF"/>
<path d="M691.47 489.035C691.47 514.904 691.47 539.281 691.47 564.288C681.661 564.288 662.637 564.324 662.637 564.324C662.637 564.324 662.637 475.22 662.691 433.884C662.745 392.888 694.416 360.66 734.819 359.133C774.826 357.624 808.599 387.769 812.479 428.458C816.126 466.579 787.113 502.849 747.951 508.49C728.657 511.275 711.069 506.891 696.392 493.31C695.189 492.178 693.895 491.136 691.47 489.035ZM737.855 386.834C711.213 386.709 690.967 407.009 690.895 433.901C690.823 460.722 711.159 481.489 737.513 481.507C763.472 481.525 783.754 461.136 784.077 434.71C784.383 407.871 764.209 386.96 737.855 386.834Z" fill="#00B8FF"/>
<path d="M571.678 509.083C529.731 509.155 496.173 475.741 496.281 433.974C496.371 392.565 529.677 359.241 571.121 359.079C612.853 358.918 646.716 392.673 646.59 434.297C646.482 475.633 613.05 509.011 571.678 509.083ZM571.552 386.835C544.893 386.889 524.88 407.224 524.916 434.225C524.952 460.866 545.611 481.669 571.875 481.526C597.816 481.382 617.865 460.866 617.972 434.351C618.08 407.135 598.193 386.799 571.552 386.835Z" fill="#00B8FF"/>
<path d="M1160.14 402.265C1151.02 402.265 1142.7 402.265 1134.37 402.265C1126.21 385.81 1108.68 379.415 1092.54 387.067C1086.15 390.103 1081.69 394.774 1081.75 402.211C1081.8 409.667 1086.89 413.511 1093.28 415.379C1107.33 419.493 1121.63 422.781 1135.6 427.164C1158.42 434.314 1168.07 450.59 1164.15 474.088C1162.48 484.04 1157.36 491.837 1149.22 497.711C1128.11 512.981 1089.49 512.873 1068.54 497.495C1056.74 488.818 1050.69 476.818 1051.73 463.111C1059.08 463.111 1078.03 463.129 1078.03 463.129C1078.03 463.129 1078.21 465.554 1078.44 466.327C1081.89 478.094 1091.25 481.92 1101.76 482.675C1109.3 483.214 1117.26 482.279 1124.61 480.357C1132.14 478.381 1136.4 472.273 1136.47 464.189C1136.54 456.213 1131.9 451.255 1124.68 449.117C1110.36 444.859 1095.83 441.374 1081.57 436.991C1066.12 432.248 1055.5 422.799 1053.51 405.679C1051.78 390.894 1057.17 379.361 1068.83 370.522C1088.47 355.629 1123.3 355.055 1143.38 369.247C1154.38 376.989 1160.04 387.57 1160.14 402.265Z" fill="#00B8FF"/>
<path d="M428.811 362.385C389.217 350.295 348.276 372.032 336.06 411.41C323.575 451.669 345.384 493.652 385.122 505.85C420.476 516.718 464.453 497.855 474.01 467.082C464.237 467.082 440.614 467.118 440.614 467.118C440.614 467.118 439.303 469.31 438.135 470.316C425.757 480.825 411.44 483.232 396.026 480.43C380.451 477.609 367.786 465.304 364.983 451.417H364.929C364.929 451.417 363.402 445.219 363.349 433.129C363.331 427.83 363.798 423.985 364.355 421.326C364.337 421.326 364.319 421.326 364.301 421.326C364.355 421.147 364.426 420.967 364.48 420.788C365.145 417.77 365.882 416.458 365.882 416.458H365.917C373.229 396.733 388.679 387.122 409.805 386.889C428.739 386.673 446.255 402.572 450.135 421.273C448.141 421.273 413.667 421.291 385.373 421.326V444.465C416.883 444.465 448.375 444.465 479.759 444.465C485.094 419.35 473.615 376.056 428.811 362.385Z" fill="#00B8FF"/>
<path d="M984.776 362.854C945.182 350.763 904.241 372.501 892.025 411.879C879.539 452.137 901.348 494.12 941.086 506.318C976.44 517.187 1020.42 498.324 1029.97 467.551C1020.2 467.551 996.578 467.587 996.578 467.587C996.578 467.587 995.267 469.778 994.099 470.784C981.722 481.294 967.404 483.701 951.99 480.898C936.415 478.078 923.75 465.772 920.948 451.886H920.894C920.894 451.886 919.367 445.688 919.313 433.598C919.295 428.298 919.762 424.454 920.319 421.795C920.301 421.795 920.283 421.795 920.265 421.795C920.319 421.616 920.391 421.436 920.445 421.256C921.109 418.238 921.846 416.927 921.846 416.927H921.882C929.193 397.202 944.643 387.591 965.769 387.357C984.704 387.142 1002.22 403.04 1006.1 421.741C1004.11 421.741 969.632 421.759 941.337 421.795V444.934C972.847 444.934 1004.34 444.934 1035.72 444.934C1041.08 419.837 1029.58 376.525 984.776 362.854Z" fill="#00B8FF"/>
<path d="M829.185 304C838.419 304 856.653 304 856.653 304C856.653 304 856.401 410.637 856.653 460.92C856.635 489.717 872.084 486.951 872.084 486.951C872.084 486.951 872.138 503.352 872.084 509.55C849.593 509.64 829.185 509.568 829.221 464.89C829.257 422.314 829.185 306.03 829.185 304Z" fill="#00B8FF"/>
</mask>
<g mask="url(#mask1)">
<path fill-rule="evenodd" clip-rule="evenodd" d="M-1 1039C306.07 1039 555 790.07 555 483C555 175.93 306.07 -73 -1 -73C-308.07 -73 -557 175.93 -557 483C-557 790.07 -308.07 1039 -1 1039ZM-1.00037 863C208.868 863 379 692.868 379 483C379 273.132 208.868 103 -1.00037 103C-210.869 103 -381 273.132 -381 483C-381 692.868 -210.869 863 -1.00037 863Z" fill="#A7F88B"/>
</g>
<defs>
<linearGradient id="paint0_linear" x1="627.014" y1="27" x2="-215.446" y2="267.372" gradientUnits="userSpaceOnUse">
<stop stop-color="#012641"/>
<stop offset="1" stop-color="#174C72"/>
</linearGradient>
</defs>
</svg>
