<svg width="32" height="32" viewBox="0 0 32 32" fill="none" xmlns="http://www.w3.org/2000/svg">
<g clip-path="url(#clip0)">
<path fill-rule="evenodd" clip-rule="evenodd" d="M32 0H0V32H32V0ZM4.80959 27.2029L6.37704 21.6358C5.36908 19.9234 4.83838 17.9751 4.83838 15.9736C4.83838 9.81105 9.85201 4.79742 16.0146 4.79742C22.1772 4.79742 27.1907 9.81105 27.1907 15.9736C27.1907 22.1362 22.1772 27.1498 16.0146 27.1498C14.0944 27.1498 12.2141 26.6583 10.5507 25.725L4.80959 27.2029ZM10.8442 23.6917L11.1863 23.9006C12.6366 24.786 14.3062 25.254 16.0146 25.254C21.1318 25.254 25.2949 21.0908 25.2949 15.9736C25.2949 10.8564 21.1318 6.69328 16.0146 6.69328C10.8974 6.69328 6.73424 10.8564 6.73424 15.9736C6.73424 17.7566 7.24099 19.4881 8.19959 20.9809L8.42997 21.3396L7.52734 24.5456L10.8442 23.6917ZM12.1492 10.7322L12.8744 10.7718C13.0171 10.7796 13.1432 10.8678 13.1994 10.9993L14.2559 13.471C14.3124 13.6031 14.2886 13.7558 14.1947 13.8644L13.2751 14.9282C13.2006 15.0145 13.1876 15.1373 13.2401 15.2385C14.4512 17.5714 16.6584 18.4958 17.3173 18.7273C17.4296 18.7668 17.5541 18.7294 17.6267 18.6352L18.5889 17.3879C18.6959 17.2492 18.8846 17.2029 19.0437 17.2762L21.4946 18.4059C21.6543 18.4795 21.7416 18.6539 21.7048 18.8258L21.589 19.3666C21.4584 19.9768 21.096 20.5165 20.5703 20.8528C19.9065 21.2774 19.0463 21.4859 17.9526 21.1766C14.5588 20.217 12.6396 17.9701 11.6097 16.5657C10.5799 15.1614 10.1819 13.757 10.4394 12.6102C10.6121 11.841 11.1742 11.2508 11.5258 10.9455C11.698 10.7959 11.9214 10.7198 12.1492 10.7322Z" fill="white"/>
</g>
<defs>
<clipPath id="clip0">
<rect width="32" height="32" fill="white"/>
</clipPath>
</defs>
</svg>
