<svg width="34" height="34" viewBox="0 0 34 34" fill="none" xmlns="http://www.w3.org/2000/svg">
    <path d="M17.0155 7.11157C11.5784 7.11157 7.15509 11.5349 7.15509 16.9719C7.15509 18.8664 7.69352 20.7061 8.71203 22.2921L8.95681 22.6733L7.99776 26.0796L11.522 25.1724L11.8854 25.3944C13.4263 26.3351 15.2003 26.8323 17.0155 26.8323C22.4525 26.8323 26.8758 22.409 26.8758 16.9719C26.8758 11.5349 22.4525 7.11157 17.0155 7.11157ZM23.0619 20.0025L22.9389 20.5771C22.8001 21.2254 22.4151 21.7989 21.8565 22.1562C21.1513 22.6073 20.2371 22.8288 19.0752 22.5003C15.4693 21.4806 13.4301 19.0933 12.3359 17.6012C11.2417 16.1091 10.819 14.617 11.0925 13.3984C11.2759 12.5812 11.8732 11.9541 12.2468 11.6297C12.4298 11.4708 12.6672 11.3899 12.9091 11.4031L13.6796 11.4451C13.8314 11.4534 13.9652 11.5471 14.025 11.6868L15.1474 14.313C15.2074 14.4533 15.1821 14.6155 15.0824 14.7309L14.1053 15.8612C14.0261 15.9528 14.0123 16.0834 14.0681 16.1909C15.3549 18.6696 17.7 19.6518 18.4001 19.8978C18.5194 19.9397 18.6516 19.9001 18.7289 19.7999L19.7512 18.4746C19.8649 18.3272 20.0654 18.278 20.2345 18.356L22.8386 19.5563C23.0083 19.6345 23.101 19.8199 23.0619 20.0025Z" fill="#012641"/>
    <path d="M0 0V34H34V0H0ZM17.0153 28.8466C14.9751 28.8466 12.9773 28.3243 11.21 27.3327L5.11002 28.9029L6.77544 22.9879C5.70448 21.1685 5.14061 19.0984 5.14061 16.9718C5.14061 10.4241 10.4676 5.09712 17.0153 5.09712C23.5631 5.09712 28.89 10.4241 28.89 16.9718C28.89 23.5196 23.5631 28.8466 17.0153 28.8466Z" fill="#012641"/>
</svg>
