<svg width="32" height="33" viewBox="0 0 32 33" fill="none" xmlns="http://www.w3.org/2000/svg">
<g clip-path="url(#clip0)">
<path fill-rule="evenodd" clip-rule="evenodd" d="M0 0H32V32.7442H0V0ZM3.79789 15.7609L25.1967 7.22808C26.0111 6.90332 26.8529 7.63274 26.674 8.50823L23.0205 26.3816C22.8491 27.2203 21.8877 27.597 21.2127 27.09L15.6964 22.9467L12.885 25.8841C12.3916 26.3996 11.5392 26.191 11.3272 25.5027L9.29791 18.9137L3.86024 17.2706C3.14677 17.0551 3.10478 16.0373 3.79789 15.7609ZM12.5742 20.1886L22.5138 11.1946C22.7518 10.9794 22.4754 10.5991 22.2055 10.7706L10.4679 18.2197C10.2612 18.3508 10.1672 18.6083 10.2393 18.846L11.8138 24.0373C11.8469 24.1464 12.0022 24.1314 12.0147 24.0179L12.3973 20.5369C12.4121 20.4024 12.4751 20.2783 12.5742 20.1886Z" fill="white"/>
</g>
<defs>
<clipPath id="clip0">
<rect width="32" height="32.7442" fill="white"/>
</clipPath>
</defs>
</svg>
