<svg width="34" height="34" viewBox="0 0 34 34" fill="none" xmlns="http://www.w3.org/2000/svg">
    <path fill-rule="evenodd" clip-rule="evenodd" d="M0 0V34H34V0H0ZM28.7553 7.52334L24.7607 26.7379C24.6666 27.1916 24.1346 27.3971 23.7593 27.1244L18.3062 23.1654C17.9752 22.925 17.5238 22.9377 17.2068 23.1961L14.1835 25.6607C13.8326 25.9476 13.3039 25.7877 13.1695 25.3556L11.0702 18.6041L5.64639 16.5798C5.09544 16.3734 5.09073 15.5956 5.64011 15.384L27.8994 6.79694C28.3713 6.61446 28.8582 7.02784 28.7553 7.52334Z" fill="#012641"/>
    <path fill-rule="evenodd" clip-rule="evenodd" d="M23.4317 10.9978L12.8316 17.5263C12.4254 17.7771 12.2341 18.2677 12.3652 18.727L13.5113 22.7541C13.5928 23.0394 14.0068 23.0102 14.0465 22.7154L14.3443 20.5071C14.4006 20.0913 14.5988 19.708 14.9064 19.4219L23.6544 11.2901C23.8182 11.1385 23.6221 10.8809 23.4317 10.9978Z" fill="#012641"/>
</svg>
