<svg width="123" height="32" viewBox="0 0 123 32" fill="none" xmlns="http://www.w3.org/2000/svg">
    <path d="M3.54427 22.7452C3.54427 25.9251 3.54427 28.9217 3.54427 31.9956C2.33856 31.9956 0 32 0 32C0 32 -2.69416e-07 21.047 0.00662454 15.9658C0.0132493 10.9265 3.90643 6.96488 8.87282 6.77718C13.7906 6.59168 17.9422 10.2972 18.4192 15.2989C18.8674 19.9848 15.3011 24.4433 10.4871 25.1367C8.11539 25.479 5.95349 24.9402 4.14934 23.2707C3.99917 23.1316 3.84239 23.0035 3.54427 22.7452ZM9.24602 10.1823C5.97116 10.1669 3.48244 12.6622 3.47361 15.968C3.46477 19.2649 5.96453 21.8177 9.20406 21.8199C12.395 21.8221 14.8881 19.3157 14.9279 16.0674C14.9654 12.7682 12.4855 10.1978 9.24602 10.1823Z" fill="#00B8FF"/>
    <path d="M64.3469 22.7452C64.3469 25.9251 64.3469 28.9217 64.3469 31.9956C63.1412 31.9956 60.8026 32 60.8026 32C60.8026 32 60.8026 21.047 60.8092 15.9658C60.8159 10.9265 64.709 6.96488 69.6754 6.77718C74.5932 6.59168 78.7448 10.2972 79.2218 15.2989C79.6701 19.9848 76.1037 24.4433 71.2897 25.1367C68.918 25.479 66.7561 24.9402 64.9519 23.2707C64.804 23.1316 64.645 23.0035 64.3469 22.7452ZM70.0486 10.1823C66.7738 10.1669 64.285 12.6622 64.2762 15.968C64.2674 19.2649 66.7671 21.8177 70.0067 21.8199C73.1976 21.8221 75.6908 19.3157 75.7305 16.0674C75.768 12.7682 73.2882 10.1978 70.0486 10.1823Z" fill="#00B8FF"/>
    <path d="M49.6218 25.2096C44.4655 25.2185 40.3405 21.1111 40.3537 15.9768C40.3648 10.8868 44.4589 6.79045 49.5534 6.77058C54.6832 6.7507 58.8458 10.9 58.8303 16.0166C58.8171 21.0978 54.7075 25.2008 49.6218 25.2096ZM49.6064 10.1824C46.3293 10.189 43.8693 12.6887 43.8737 16.0078C43.8781 19.2826 46.4176 21.8398 49.6461 21.8221C52.8349 21.8045 55.2993 19.2826 55.3125 16.0232C55.3258 12.6777 52.8812 10.1779 49.6064 10.1824Z" fill="#00B8FF"/>
    <path d="M121.958 12.0793C120.836 12.0793 119.814 12.0793 118.789 12.0793C117.787 10.0565 115.632 9.27038 113.649 10.2111C112.862 10.5843 112.315 11.1584 112.321 12.0727C112.328 12.9891 112.953 13.4617 113.739 13.6913C115.466 14.197 117.224 14.6011 118.942 15.14C121.746 16.0188 122.932 18.0195 122.451 20.908C122.245 22.1313 121.616 23.0897 120.616 23.8118C118.021 25.6889 113.273 25.6756 110.698 23.7853C109.247 22.7187 108.503 21.2436 108.631 19.5587C109.535 19.5587 111.864 19.5609 111.864 19.5609C111.864 19.5609 111.886 19.859 111.915 19.954C112.339 21.4004 113.49 21.8708 114.781 21.9635C115.709 22.0298 116.687 21.9149 117.59 21.6786C118.516 21.4357 119.039 20.6849 119.048 19.6912C119.057 18.7107 118.487 18.1012 117.599 17.8385C115.839 17.3151 114.053 16.8867 112.299 16.3479C110.4 15.7649 109.095 14.6033 108.85 12.4989C108.638 10.6815 109.3 9.26375 110.734 8.17728C113.147 6.34663 117.429 6.27596 119.898 8.02049C121.249 8.97226 121.945 10.2729 121.958 12.0793Z" fill="#00B8FF"/>
    <path d="M32.0597 7.17713C27.1927 5.69096 22.1601 8.36297 20.6584 13.2035C19.1237 18.1522 21.8045 23.313 26.6892 24.8124C31.0351 26.1484 36.4409 23.8297 37.6157 20.0469C36.4144 20.0469 33.5106 20.0513 33.5106 20.0513C33.5106 20.0513 33.3494 20.3207 33.2058 20.4444C31.6843 21.7362 29.9243 22.0322 28.0296 21.6877C26.1151 21.341 24.5582 19.8283 24.2138 18.1213H24.2071C24.2071 18.1213 24.0194 17.3595 24.0128 15.8733C24.0106 15.2219 24.068 14.7493 24.1365 14.4225C24.1343 14.4225 24.132 14.4225 24.1298 14.4225C24.1365 14.4004 24.1453 14.3783 24.1519 14.3562C24.2336 13.9852 24.3242 13.824 24.3242 13.824H24.3286C25.2273 11.3993 27.1265 10.2179 29.7234 10.1892C32.0509 10.1627 34.204 12.117 34.6809 14.4158C34.4358 14.4158 30.1982 14.418 26.7201 14.4225V17.2667C30.5934 17.2667 34.4645 17.2667 38.3224 17.2667C38.9782 14.1796 37.5672 8.85762 32.0597 7.17713Z" fill="#00B8FF"/>
    <path d="M100.401 7.23475C95.5342 5.74858 90.5016 8.42059 88.9999 13.2611C87.4652 18.2098 90.146 23.3706 95.0307 24.87C99.3766 26.206 104.782 23.8873 105.957 20.1045C104.756 20.1045 101.852 20.1089 101.852 20.1089C101.852 20.1089 101.691 20.3784 101.547 20.502C100.026 21.7939 98.2658 22.0898 96.3711 21.7453C94.4566 21.3986 92.8997 19.8859 92.5552 18.1789H92.5486C92.5486 18.1789 92.3609 17.4171 92.3543 15.9309C92.3521 15.2795 92.4095 14.8069 92.478 14.4801C92.4757 14.4801 92.4735 14.4801 92.4713 14.4801C92.478 14.458 92.4868 14.4359 92.4934 14.4138C92.5751 14.0428 92.6657 13.8816 92.6657 13.8816H92.6701C93.5688 11.457 95.4679 10.2755 98.0649 10.2468C100.392 10.2203 102.545 12.1746 103.022 14.4735C102.777 14.4735 98.5397 14.4757 95.0616 14.4801V17.3243C98.9349 17.3243 102.806 17.3243 106.664 17.3243C107.322 14.2394 105.909 8.91524 100.401 7.23475Z" fill="#00B8FF"/>
    <path d="M81.2753 0C82.4103 0 84.6517 0 84.6517 0C84.6517 0 84.6208 13.1083 84.6517 19.2892C84.6495 22.8291 86.5486 22.489 86.5486 22.489C86.5486 22.489 86.5552 24.5052 86.5486 25.267C83.7839 25.2781 81.2753 25.2692 81.2797 19.7773C81.2841 14.5437 81.2753 0.249534 81.2753 0Z" fill="#00B8FF"/>
</svg>
