<svg width="51" height="77" viewBox="0 0 51 77" fill="none" xmlns="http://www.w3.org/2000/svg">
<path d="M33 70C33 73.866 29.866 77 26 77C22.134 77 19 73.866 19 70C19 66.134 22.134 63 26 63C29.866 63 33 66.134 33 70Z" fill="#00B8FF"/>
<path fill-rule="evenodd" clip-rule="evenodd" d="M26 74C28.2091 74 30 72.2091 30 70C30 67.7909 28.2091 66 26 66C23.7909 66 22 67.7909 22 70C22 72.2091 23.7909 74 26 74ZM26 77C29.866 77 33 73.866 33 70C33 66.134 29.866 63 26 63C22.134 63 19 66.134 19 70C19 73.866 22.134 77 26 77Z" fill="white"/>
<path d="M51 25.5C51 33.3598 46.7591 41.1065 41.7707 47.5C34.6475 56.6297 26 63 26 63C26 63 16.0844 55.9764 8.5 46.1097C3.80296 39.9993 0 32.7984 0 25.5C0 11.4167 11.9167 0 26 0C40.0833 0 51 11.4167 51 25.5Z" fill="#00B8FF"/>
<g clip-path="url(#clip0)">
<path d="M35.7263 38.3226H34.0724V17.7742C34.0724 17.311 33.6969 16.9355 33.2337 16.9355H26.9434V14.8387C26.9434 14.3755 26.5679 14 26.1047 14H20.2861C19.8229 14 19.4474 14.3755 19.4474 14.8387V16.9355H18.766C18.3027 16.9355 17.9273 17.311 17.9273 17.7742V38.3226H16.2734C15.8216 38.3226 15.4331 38.6699 15.4121 39.1211C15.3896 39.6028 15.7731 40 16.2498 40H22.2256C22.4572 40 22.645 39.8122 22.645 39.5806V34.7581H22.3018C21.8502 34.7581 21.4616 34.411 21.4403 33.9599C21.4176 33.4783 21.8014 33.0806 22.2781 33.0806C22.5313 33.0806 29.9074 33.0806 29.6979 33.0806C30.1495 33.0806 30.5381 33.4277 30.5594 33.8788C30.5821 34.3604 30.1983 34.7581 29.7216 34.7581H29.3547V39.5806C29.3547 39.8122 29.5424 40 29.774 40H35.7498C36.2265 40 36.61 39.6028 36.5876 39.1211C36.5666 38.6699 36.178 38.3226 35.7263 38.3226ZM23.9555 31.3508H23.0119C22.5488 31.3508 22.1732 30.9753 22.1732 30.5121C22.1732 30.0489 22.5488 29.6734 23.0119 29.6734H23.9555C24.4187 29.6734 24.7942 30.0489 24.7942 30.5121C24.7942 30.9753 24.4187 31.3508 23.9555 31.3508ZM23.9555 28.2056H23.0119C22.5488 28.2056 22.1732 27.8301 22.1732 27.3669C22.1732 26.9038 22.5488 26.5282 23.0119 26.5282H23.9555C24.4187 26.5282 24.7942 26.9038 24.7942 27.3669C24.7942 27.8301 24.4187 28.2056 23.9555 28.2056ZM23.9555 25.0605H23.0119C22.5488 25.0605 22.1732 24.685 22.1732 24.2218C22.1732 23.7586 22.5488 23.3831 23.0119 23.3831H23.9555C24.4187 23.3831 24.7942 23.7586 24.7942 24.2218C24.7942 24.685 24.4187 25.0605 23.9555 25.0605ZM23.9555 21.9153H23.0119C22.5488 21.9153 22.1732 21.5398 22.1732 21.0766C22.1732 20.6134 22.5488 20.2379 23.0119 20.2379H23.9555C24.4187 20.2379 24.7942 20.6134 24.7942 21.0766C24.7942 21.5398 24.4187 21.9153 23.9555 21.9153ZM28.9353 31.3508H27.9918C27.5285 31.3508 27.1531 30.9753 27.1531 30.5121C27.1531 30.0489 27.5285 29.6734 27.9918 29.6734H28.9353C29.3985 29.6734 29.774 30.0489 29.774 30.5121C29.774 30.9753 29.3985 31.3508 28.9353 31.3508ZM28.9353 28.2056H27.9918C27.5285 28.2056 27.1531 27.8301 27.1531 27.3669C27.1531 26.9038 27.5285 26.5282 27.9918 26.5282H28.9353C29.3985 26.5282 29.774 26.9038 29.774 27.3669C29.774 27.8301 29.3985 28.2056 28.9353 28.2056ZM28.9353 25.0605H27.9918C27.5285 25.0605 27.1531 24.685 27.1531 24.2218C27.1531 23.7586 27.5285 23.3831 27.9918 23.3831H28.9353C29.3985 23.3831 29.774 23.7586 29.774 24.2218C29.774 24.685 29.3985 25.0605 28.9353 25.0605ZM28.9353 21.9153H27.9918C27.5285 21.9153 27.1531 21.5398 27.1531 21.0766C27.1531 20.6134 27.5285 20.2379 27.9918 20.2379H28.9353C29.3985 20.2379 29.774 20.6134 29.774 21.0766C29.774 21.5398 29.3985 21.9153 28.9353 21.9153ZM24.3224 39.5806V35.1774C24.3224 34.9458 24.5102 34.7581 24.7418 34.7581H27.2579C27.4895 34.7581 27.6773 34.9458 27.6773 35.1774V39.5806C27.6773 39.8122 27.4895 40 27.2579 40H24.7418C24.5102 40 24.3224 39.8122 24.3224 39.5806Z" fill="white"/>
</g>
<defs>
<clipPath id="clip0">
<rect x="13" y="14" width="26" height="26" fill="white"/>
</clipPath>
</defs>
</svg>
