<svg width="900" height="913" viewBox="0 0 900 913" fill="none" xmlns="http://www.w3.org/2000/svg">
<path fill-rule="evenodd" clip-rule="evenodd" d="M450.5 899C698.752 899 900 697.752 900 449.5C900 201.248 698.752 0 450.5 0C202.248 0 1 201.248 1 449.5C1 697.752 202.248 899 450.5 899ZM451.117 720.187C600.954 720.187 722.42 598.72 722.42 448.883C722.42 299.047 600.954 177.58 451.117 177.58C301.281 177.58 179.814 299.047 179.814 448.883C179.814 598.72 301.281 720.187 451.117 720.187Z" fill="#00B8FF" fill-opacity="0.06"/>
<mask id="mask0" mask-type="alpha" maskUnits="userSpaceOnUse" x="0" y="498" width="564" height="415">
<rect y="498" width="564" height="415" fill="#C4C4C4"/>
</mask>
<g mask="url(#mask0)">
<path fill-rule="evenodd" clip-rule="evenodd" d="M450.5 899C698.752 899 900 697.752 900 449.5C900 201.248 698.752 0 450.5 0C202.248 0 1 201.248 1 449.5C1 697.752 202.248 899 450.5 899ZM451.117 720.187C600.954 720.187 722.42 598.72 722.42 448.883C722.42 299.047 600.954 177.58 451.117 177.58C301.281 177.58 179.814 299.047 179.814 448.883C179.814 598.72 301.281 720.187 451.117 720.187Z" fill="#82E0FC" style="mix-blend-mode:color"/>
</g>
</svg>
